<svg id="visual" viewBox="0 0 960 310" width="960" height="310" xmlns="http://www.w3.org/2000/svg" xmlns:xlink="http://www.w3.org/1999/xlink" version="1.1"><rect x="0" y="0" width="960" height="310" fill="#11171e"></rect><path d="M0 285L137 285L137 182L274 182L274 257L411 257L411 212L549 212L549 264L686 264L686 185L823 185L823 188L960 188L960 170L960 0L960 0L823 0L823 0L686 0L686 0L549 0L549 0L411 0L411 0L274 0L274 0L137 0L137 0L0 0Z" fill="#2f0c7a"></path><path d="M0 161L137 161L137 219L274 219L274 232L411 232L411 152L549 152L549 157L686 157L686 170L823 170L823 225L960 225L960 168L960 0L960 0L823 0L823 0L686 0L686 0L549 0L549 0L411 0L411 0L274 0L274 0L137 0L137 0L0 0Z" fill="#3f11a3"></path><path d="M0 142L137 142L137 109L274 109L274 68L411 68L411 150L549 150L549 71L686 71L686 90L823 90L823 87L960 87L960 75L960 0L960 0L823 0L823 0L686 0L686 0L549 0L549 0L411 0L411 0L274 0L274 0L137 0L137 0L0 0Z" fill="#5115ce"></path><path d="M0 66L137 66L137 15L274 15L274 35L411 35L411 77L549 77L549 32L686 32L686 22L823 22L823 57L960 57L960 37L960 0L960 0L823 0L823 0L686 0L686 0L549 0L549 0L411 0L411 0L274 0L274 0L137 0L137 0L0 0Z" fill="#6219fa"></path></svg>